<svg xmlns="http://www.w3.org/2000/svg" xmlns:xlink="http://www.w3.org/1999/xlink" width="500" zoomAndPan="magnify" viewBox="0 0 375 374.999991" height="500" preserveAspectRatio="xMidYMid meet" version="1.0"><defs><g/><clipPath id="f919148c5a"><path d="M 28.875 85.226562 L 346.125 85.226562 L 346.125 186.390625 L 28.875 186.390625 Z M 28.875 85.226562 " clip-rule="nonzero"/></clipPath><clipPath id="20d9856d83"><path d="M 319.246094 125.964844 C 317.46875 125.964844 315.964844 127.136719 315.472656 128.746094 L 270.6875 128.746094 L 255.320312 113.425781 L 236.769531 113.425781 L 225.640625 102.332031 L 210.59375 102.332031 L 210.59375 104.445312 L 224.761719 104.445312 L 235.890625 115.539062 L 254.441406 115.539062 L 269.8125 130.859375 L 315.421875 130.859375 C 315.851562 132.566406 317.398438 133.828125 319.246094 133.828125 C 321.421875 133.828125 323.191406 132.066406 323.191406 129.894531 C 323.191406 127.722656 321.421875 125.964844 319.246094 125.964844 Z M 90.4375 103.78125 C 93.003906 103.78125 95.1875 102.132812 95.984375 99.84375 L 100.472656 99.84375 L 111.601562 88.75 L 133.101562 88.75 L 141.933594 97.554688 L 164.40625 97.554688 L 171.332031 94.03125 L 143.398438 94.03125 L 134.566406 85.226562 L 110.136719 85.226562 L 99.007812 96.320312 L 96.082031 96.320312 C 95.378906 93.871094 93.117188 92.074219 90.4375 92.074219 C 87.195312 92.074219 84.566406 94.695312 84.566406 97.929688 C 84.566406 101.160156 87.195312 103.78125 90.4375 103.78125 Z M 233.066406 97.554688 L 241.898438 88.75 L 263.398438 88.75 L 274.527344 99.84375 L 279.015625 99.84375 C 279.8125 102.132812 281.996094 103.78125 284.5625 103.78125 C 287.804688 103.78125 290.433594 101.160156 290.433594 97.929688 C 290.433594 94.695312 287.804688 92.074219 284.5625 92.074219 C 281.878906 92.074219 279.617188 93.871094 278.917969 96.320312 L 275.992188 96.320312 L 264.863281 85.226562 L 240.433594 85.226562 L 231.601562 94.03125 L 200.679688 94.03125 L 210.59375 97.554688 Z M 32.820312 121.3125 C 34.605469 121.3125 36.113281 120.132812 36.601562 118.507812 L 98.058594 118.507812 L 109.894531 106.710938 L 137.367188 106.710938 L 137.367188 104.597656 L 109.015625 104.597656 L 97.179688 116.398438 L 36.640625 116.398438 C 36.199219 114.703125 34.65625 113.449219 32.820312 113.449219 C 30.640625 113.449219 28.875 115.210938 28.875 117.382812 C 28.875 119.554688 30.640625 121.3125 32.820312 121.3125 Z M 141.933594 174.0625 L 133.101562 182.867188 L 111.601562 182.867188 L 100.472656 171.773438 L 95.984375 171.773438 C 95.1875 169.480469 93.003906 167.835938 90.4375 167.835938 C 87.195312 167.835938 84.566406 170.457031 84.566406 173.691406 C 84.566406 176.921875 87.195312 179.542969 90.4375 179.542969 C 93.117188 179.542969 95.378906 177.746094 96.082031 175.296875 L 99.007812 175.296875 L 110.136719 186.390625 L 134.566406 186.390625 L 143.398438 177.585938 L 176.953125 177.585938 L 164.40625 174.0625 Z M 342.179688 150.300781 C 340.394531 150.300781 338.886719 151.484375 338.398438 153.105469 L 276.941406 153.105469 L 265.105469 164.90625 L 237.632812 164.90625 L 237.632812 167.019531 L 265.980469 167.019531 L 277.820312 155.21875 L 338.359375 155.21875 C 338.800781 156.914062 340.34375 158.167969 342.179688 158.167969 C 344.359375 158.167969 346.125 156.40625 346.125 154.234375 C 346.125 152.0625 344.359375 150.300781 342.179688 150.300781 Z M 284.5625 167.835938 C 281.996094 167.835938 279.8125 169.480469 279.015625 171.773438 L 274.527344 171.773438 L 263.398438 182.867188 L 241.898438 182.867188 L 233.066406 174.0625 L 210.59375 174.0625 L 197.695312 177.585938 L 231.601562 177.585938 L 240.433594 186.390625 L 264.863281 186.390625 L 275.992188 175.296875 L 278.917969 175.296875 C 279.617188 177.746094 281.878906 179.542969 284.5625 179.542969 C 287.804688 179.542969 290.433594 176.921875 290.433594 173.691406 C 290.433594 170.457031 287.804688 167.835938 284.5625 167.835938 Z M 109.015625 167.019531 L 137.367188 167.019531 L 137.367188 164.90625 L 109.894531 164.90625 L 98.058594 153.105469 L 36.601562 153.105469 C 36.113281 151.484375 34.605469 150.300781 32.820312 150.300781 C 30.640625 150.300781 28.875 152.0625 28.875 154.234375 C 28.875 156.40625 30.640625 158.167969 32.820312 158.167969 C 34.65625 158.167969 36.199219 156.914062 36.640625 155.21875 L 97.179688 155.21875 Z M 223.5625 158.132812 L 232.394531 149.328125 L 242.785156 149.328125 C 243.503906 151.703125 245.714844 153.433594 248.332031 153.433594 C 251.535156 153.433594 254.128906 150.847656 254.128906 147.65625 C 254.128906 144.464844 251.535156 141.878906 248.332031 141.878906 C 245.78125 141.878906 243.617188 143.523438 242.84375 145.804688 L 230.933594 145.804688 L 222.097656 154.613281 L 220.921875 154.613281 C 220.234375 155.828125 219.480469 157.003906 218.664062 158.132812 Z M 222.097656 117.007812 L 230.933594 125.8125 L 242.84375 125.8125 C 243.617188 128.09375 245.78125 129.738281 248.332031 129.738281 C 251.535156 129.738281 254.128906 127.152344 254.128906 123.960938 C 254.128906 120.769531 251.535156 118.183594 248.332031 118.183594 C 245.714844 118.183594 243.503906 119.914062 242.785156 122.289062 L 232.394531 122.289062 L 223.5625 113.484375 L 218.664062 113.484375 C 219.480469 114.613281 220.234375 115.789062 220.921875 117.007812 Z M 265.980469 104.597656 L 237.632812 104.597656 L 237.632812 106.710938 L 265.105469 106.710938 L 276.941406 118.507812 L 338.398438 118.507812 C 338.886719 120.132812 340.394531 121.3125 342.179688 121.3125 C 344.359375 121.3125 346.125 119.554688 346.125 117.382812 C 346.125 115.210938 344.359375 113.449219 342.179688 113.449219 C 340.34375 113.449219 338.800781 114.703125 338.359375 116.398438 L 277.820312 116.398438 Z M 126.667969 129.738281 C 129.21875 129.738281 131.382812 128.09375 132.15625 125.8125 L 144.066406 125.8125 L 152.898438 117.007812 L 154.074219 117.007812 C 154.765625 115.789062 155.519531 114.613281 156.335938 113.484375 L 151.4375 113.484375 L 142.605469 122.289062 L 132.214844 122.289062 C 131.496094 119.914062 129.285156 118.183594 126.667969 118.183594 C 123.464844 118.183594 120.871094 120.769531 120.871094 123.960938 C 120.871094 127.152344 123.464844 129.738281 126.667969 129.738281 Z M 164.40625 102.332031 L 149.359375 102.332031 L 138.230469 113.425781 L 119.679688 113.425781 L 104.308594 128.746094 L 59.527344 128.746094 C 59.035156 127.136719 57.53125 125.964844 55.753906 125.964844 C 53.574219 125.964844 51.808594 127.722656 51.808594 129.894531 C 51.808594 132.066406 53.574219 133.828125 55.753906 133.828125 C 57.601562 133.828125 59.148438 132.566406 59.578125 130.859375 L 105.1875 130.859375 L 120.558594 115.539062 L 139.109375 115.539062 L 150.238281 104.445312 L 164.40625 104.445312 Z M 105.1875 140.757812 L 59.578125 140.757812 C 59.148438 139.050781 57.601562 137.789062 55.753906 137.789062 C 53.574219 137.789062 51.808594 139.546875 51.808594 141.71875 C 51.808594 143.890625 53.574219 145.652344 55.753906 145.652344 C 57.53125 145.652344 59.035156 144.480469 59.527344 142.871094 L 104.308594 142.871094 L 119.679688 158.191406 L 138.230469 158.191406 L 149.359375 169.289062 L 164.40625 169.289062 L 164.40625 167.171875 L 150.238281 167.171875 L 139.109375 156.078125 L 120.558594 156.078125 Z M 210.59375 169.289062 L 225.640625 169.289062 L 236.769531 158.191406 L 255.320312 158.191406 L 270.6875 142.871094 L 315.472656 142.871094 C 315.964844 144.480469 317.46875 145.652344 319.246094 145.652344 C 321.421875 145.652344 323.191406 143.890625 323.191406 141.71875 C 323.191406 139.546875 321.421875 137.789062 319.246094 137.789062 C 317.398438 137.789062 315.851562 139.050781 315.421875 140.757812 L 269.8125 140.757812 L 254.441406 156.078125 L 235.890625 156.078125 L 224.761719 167.171875 L 210.59375 167.171875 Z M 126.667969 153.433594 C 129.285156 153.433594 131.496094 151.703125 132.214844 149.328125 L 142.605469 149.328125 L 151.4375 158.132812 L 156.335938 158.132812 C 155.519531 157.003906 154.765625 155.828125 154.074219 154.613281 L 152.898438 154.613281 L 144.066406 145.804688 L 132.15625 145.804688 C 131.382812 143.523438 129.21875 141.878906 126.667969 141.878906 C 123.464844 141.878906 120.871094 144.464844 120.871094 147.65625 C 120.871094 150.847656 123.464844 153.433594 126.667969 153.433594 Z M 126.667969 153.433594 " clip-rule="nonzero"/></clipPath><clipPath id="9a5506274f"><path d="M 319.242188 125.964844 C 317.46875 125.964844 315.964844 127.136719 315.46875 128.746094 L 270.6875 128.746094 L 255.320312 113.425781 L 236.769531 113.425781 L 225.640625 102.332031 L 210.59375 102.332031 L 210.59375 104.445312 L 224.761719 104.445312 L 235.890625 115.539062 L 254.441406 115.539062 L 269.8125 130.859375 L 315.421875 130.859375 C 315.851562 132.566406 317.398438 133.828125 319.242188 133.828125 C 321.421875 133.828125 323.191406 132.070312 323.191406 129.898438 C 323.191406 127.726562 321.421875 125.964844 319.242188 125.964844 Z M 90.4375 103.78125 C 93.003906 103.78125 95.1875 102.132812 95.984375 99.84375 L 100.472656 99.84375 L 111.601562 88.75 L 133.101562 88.75 L 141.933594 97.554688 L 164.40625 97.554688 L 171.332031 94.03125 L 143.394531 94.03125 L 134.5625 85.226562 L 110.136719 85.226562 L 99.007812 96.320312 L 96.082031 96.320312 C 95.378906 93.871094 93.117188 92.074219 90.4375 92.074219 C 87.195312 92.074219 84.566406 94.695312 84.566406 97.925781 C 84.566406 101.160156 87.195312 103.78125 90.4375 103.78125 Z M 233.066406 97.554688 L 241.898438 88.75 L 263.398438 88.75 L 274.527344 99.84375 L 279.015625 99.84375 C 279.8125 102.132812 281.996094 103.78125 284.5625 103.78125 C 287.808594 103.78125 290.433594 101.160156 290.433594 97.925781 C 290.433594 94.695312 287.808594 92.074219 284.5625 92.074219 C 281.878906 92.074219 279.617188 93.871094 278.917969 96.320312 L 275.992188 96.320312 L 264.863281 85.226562 L 240.433594 85.226562 L 231.605469 94.03125 L 200.679688 94.03125 L 210.59375 97.554688 Z M 32.820312 121.316406 C 34.605469 121.316406 36.113281 120.132812 36.601562 118.507812 L 98.058594 118.507812 L 109.894531 106.710938 L 137.367188 106.710938 L 137.367188 104.597656 L 109.015625 104.597656 L 97.179688 116.398438 L 36.640625 116.398438 C 36.199219 114.703125 34.65625 113.449219 32.820312 113.449219 C 30.640625 113.449219 28.875 115.210938 28.875 117.382812 C 28.875 119.554688 30.640625 121.316406 32.820312 121.316406 Z M 141.933594 174.0625 L 133.101562 182.867188 L 111.601562 182.867188 L 100.472656 171.773438 L 95.984375 171.773438 C 95.1875 169.480469 93.003906 167.835938 90.4375 167.835938 C 87.195312 167.835938 84.566406 170.457031 84.566406 173.691406 C 84.566406 176.921875 87.195312 179.542969 90.4375 179.542969 C 93.117188 179.542969 95.378906 177.746094 96.082031 175.296875 L 99.007812 175.296875 L 110.136719 186.390625 L 134.5625 186.390625 L 143.394531 177.585938 L 176.953125 177.585938 L 164.40625 174.0625 Z M 342.179688 150.300781 C 340.394531 150.300781 338.886719 151.484375 338.398438 153.105469 L 276.941406 153.105469 L 265.105469 164.90625 L 237.632812 164.90625 L 237.632812 167.019531 L 265.980469 167.019531 L 277.820312 155.222656 L 338.359375 155.222656 C 338.800781 156.914062 340.339844 158.167969 342.179688 158.167969 C 344.355469 158.167969 346.125 156.40625 346.125 154.234375 C 346.125 152.0625 344.355469 150.300781 342.179688 150.300781 Z M 284.5625 167.835938 C 281.996094 167.835938 279.8125 169.480469 279.015625 171.773438 L 274.527344 171.773438 L 263.398438 182.867188 L 241.898438 182.867188 L 233.066406 174.0625 L 210.59375 174.0625 L 197.691406 177.585938 L 231.605469 177.585938 L 240.433594 186.390625 L 264.863281 186.390625 L 275.992188 175.296875 L 278.917969 175.296875 C 279.617188 177.746094 281.878906 179.542969 284.5625 179.542969 C 287.808594 179.542969 290.433594 176.921875 290.433594 173.691406 C 290.433594 170.457031 287.808594 167.835938 284.5625 167.835938 Z M 109.015625 167.019531 L 137.367188 167.019531 L 137.367188 164.90625 L 109.894531 164.90625 L 98.058594 153.105469 L 36.601562 153.105469 C 36.113281 151.484375 34.605469 150.300781 32.820312 150.300781 C 30.640625 150.300781 28.875 152.0625 28.875 154.234375 C 28.875 156.40625 30.640625 158.167969 32.820312 158.167969 C 34.65625 158.167969 36.199219 156.914062 36.640625 155.222656 L 97.179688 155.222656 Z M 223.5625 158.132812 L 232.394531 149.328125 L 242.785156 149.328125 C 243.503906 151.703125 245.714844 153.433594 248.332031 153.433594 C 251.53125 153.433594 254.128906 150.847656 254.128906 147.65625 C 254.128906 144.464844 251.53125 141.878906 248.332031 141.878906 C 245.78125 141.878906 243.617188 143.523438 242.84375 145.804688 L 230.933594 145.804688 L 222.097656 154.613281 L 220.921875 154.613281 C 220.234375 155.828125 219.480469 157.003906 218.664062 158.132812 Z M 222.097656 117.007812 L 230.933594 125.8125 L 242.84375 125.8125 C 243.617188 128.09375 245.78125 129.738281 248.332031 129.738281 C 251.53125 129.738281 254.128906 127.152344 254.128906 123.960938 C 254.128906 120.769531 251.53125 118.183594 248.332031 118.183594 C 245.714844 118.183594 243.503906 119.914062 242.785156 122.289062 L 232.394531 122.289062 L 223.5625 113.484375 L 218.664062 113.484375 C 219.480469 114.613281 220.234375 115.789062 220.921875 117.007812 Z M 265.980469 104.597656 L 237.632812 104.597656 L 237.632812 106.710938 L 265.105469 106.710938 L 276.941406 118.507812 L 338.398438 118.507812 C 338.886719 120.132812 340.394531 121.316406 342.179688 121.316406 C 344.355469 121.316406 346.125 119.554688 346.125 117.382812 C 346.125 115.210938 344.355469 113.449219 342.179688 113.449219 C 340.339844 113.449219 338.800781 114.703125 338.359375 116.398438 L 277.820312 116.398438 Z M 126.667969 129.738281 C 129.21875 129.738281 131.382812 128.09375 132.15625 125.8125 L 144.066406 125.8125 L 152.898438 117.007812 L 154.074219 117.007812 C 154.765625 115.789062 155.519531 114.613281 156.335938 113.484375 L 151.4375 113.484375 L 142.601562 122.289062 L 132.214844 122.289062 C 131.496094 119.914062 129.285156 118.183594 126.667969 118.183594 C 123.464844 118.183594 120.871094 120.769531 120.871094 123.960938 C 120.871094 127.152344 123.464844 129.738281 126.667969 129.738281 Z M 164.40625 102.332031 L 149.359375 102.332031 L 138.230469 113.425781 L 119.679688 113.425781 L 104.308594 128.746094 L 59.527344 128.746094 C 59.035156 127.136719 57.53125 125.964844 55.753906 125.964844 C 53.574219 125.964844 51.808594 127.726562 51.808594 129.898438 C 51.808594 132.070312 53.574219 133.828125 55.753906 133.828125 C 57.601562 133.828125 59.148438 132.566406 59.578125 130.859375 L 105.1875 130.859375 L 120.558594 115.539062 L 139.105469 115.539062 L 150.238281 104.445312 L 164.40625 104.445312 Z M 105.1875 140.757812 L 59.578125 140.757812 C 59.148438 139.050781 57.601562 137.789062 55.753906 137.789062 C 53.574219 137.789062 51.808594 139.546875 51.808594 141.71875 C 51.808594 143.890625 53.574219 145.652344 55.753906 145.652344 C 57.53125 145.652344 59.035156 144.480469 59.527344 142.871094 L 104.308594 142.871094 L 119.679688 158.191406 L 138.230469 158.191406 L 149.359375 169.289062 L 164.40625 169.289062 L 164.40625 167.175781 L 150.238281 167.175781 L 139.105469 156.078125 L 120.558594 156.078125 Z M 210.59375 169.289062 L 225.640625 169.289062 L 236.769531 158.191406 L 255.320312 158.191406 L 270.6875 142.871094 L 315.46875 142.871094 C 315.964844 144.480469 317.46875 145.652344 319.242188 145.652344 C 321.421875 145.652344 323.191406 143.890625 323.191406 141.71875 C 323.191406 139.546875 321.421875 137.789062 319.242188 137.789062 C 317.398438 137.789062 315.851562 139.050781 315.421875 140.757812 L 269.8125 140.757812 L 254.441406 156.078125 L 235.890625 156.078125 L 224.761719 167.175781 L 210.59375 167.175781 Z M 126.667969 153.433594 C 129.285156 153.433594 131.496094 151.703125 132.214844 149.328125 L 142.601562 149.328125 L 151.4375 158.132812 L 156.335938 158.132812 C 155.519531 157.003906 154.765625 155.828125 154.074219 154.613281 L 152.898438 154.613281 L 144.066406 145.804688 L 132.15625 145.804688 C 131.382812 143.523438 129.21875 141.878906 126.667969 141.878906 C 123.464844 141.878906 120.871094 144.464844 120.871094 147.65625 C 120.871094 150.847656 123.464844 153.433594 126.667969 153.433594 " clip-rule="nonzero"/></clipPath><linearGradient x1="0.00000000427703" gradientTransform="matrix(317.249992, 0, 0, 316.261682, 28.87467, 135.807937)" y1="0" x2="0.999998" gradientUnits="userSpaceOnUse" y2="0" id="a3d7fcb5aa"><stop stop-opacity="1" stop-color="rgb(31.799316%, 67.799377%, 89.7995%)" offset="0"/><stop stop-opacity="1" stop-color="rgb(31.608582%, 67.655945%, 89.608765%)" offset="0.0078125"/><stop stop-opacity="1" stop-color="rgb(31.227112%, 67.324829%, 89.408875%)" offset="0.015625"/><stop stop-opacity="1" stop-color="rgb(31.018066%, 66.896057%, 89.199829%)" offset="0.0195312"/><stop stop-opacity="1" stop-color="rgb(30.999756%, 66.654968%, 88.999939%)" offset="0.0234375"/><stop stop-opacity="1" stop-color="rgb(30.999756%, 66.27655%, 88.798523%)" offset="0.0273438"/><stop stop-opacity="1" stop-color="rgb(30.999756%, 65.899658%, 88.598633%)" offset="0.03125"/><stop stop-opacity="1" stop-color="rgb(30.799866%, 65.699768%, 88.398743%)" offset="0.0351562"/><stop stop-opacity="1" stop-color="rgb(30.599976%, 65.499878%, 88.198853%)" offset="0.0390625"/><stop stop-opacity="1" stop-color="rgb(30.599976%, 65.306091%, 88.005066%)" offset="0.046875"/><stop stop-opacity="1" stop-color="rgb(30.599976%, 64.92157%, 87.805176%)" offset="0.0546875"/><stop stop-opacity="1" stop-color="rgb(30.599976%, 64.5401%, 87.649536%)" offset="0.0625"/><stop stop-opacity="1" stop-color="rgb(30.383301%, 64.108276%, 87.298584%)" offset="0.0664062"/><stop stop-opacity="1" stop-color="rgb(30.168152%, 63.868713%, 87.098694%)" offset="0.0703125"/><stop stop-opacity="1" stop-color="rgb(29.983521%, 63.677979%, 87.09259%)" offset="0.078125"/><stop stop-opacity="1" stop-color="rgb(29.798889%, 63.096619%, 86.8927%)" offset="0.0820312"/><stop stop-opacity="1" stop-color="rgb(29.798889%, 62.705994%, 86.698914%)" offset="0.0859375"/><stop stop-opacity="1" stop-color="rgb(29.798889%, 62.561035%, 86.51123%)" offset="0.09375"/><stop stop-opacity="1" stop-color="rgb(29.598999%, 62.229919%, 86.31134%)" offset="0.0976562"/><stop stop-opacity="1" stop-color="rgb(29.399109%, 62.043762%, 86.299133%)" offset="0.101562"/><stop stop-opacity="1" stop-color="rgb(29.399109%, 61.820984%, 86.099243%)" offset="0.105469"/><stop stop-opacity="1" stop-color="rgb(29.399109%, 61.599731%, 85.899353%)" offset="0.109375"/><stop stop-opacity="1" stop-color="rgb(29.389954%, 61.399841%, 85.699463%)" offset="0.113281"/><stop stop-opacity="1" stop-color="rgb(29.380798%, 61.199951%, 85.499573%)" offset="0.117188"/><stop stop-opacity="1" stop-color="rgb(29.190063%, 60.998535%, 85.299683%)" offset="0.121094"/><stop stop-opacity="1" stop-color="rgb(28.999329%, 60.798645%, 85.099792%)" offset="0.125"/><stop stop-opacity="1" stop-color="rgb(28.999329%, 60.60791%, 85.099792%)" offset="0.132812"/><stop stop-opacity="1" stop-color="rgb(28.999329%, 60.20813%, 84.898376%)" offset="0.136719"/><stop stop-opacity="1" stop-color="rgb(28.999329%, 59.999084%, 84.698486%)" offset="0.140625"/><stop stop-opacity="1" stop-color="rgb(28.799438%, 59.776306%, 84.498596%)" offset="0.144531"/><stop stop-opacity="1" stop-color="rgb(28.599548%, 59.555054%, 84.298706%)" offset="0.148437"/><stop stop-opacity="1" stop-color="rgb(28.399658%, 59.176636%, 84.286499%)" offset="0.152344"/><stop stop-opacity="1" stop-color="rgb(28.199768%, 58.799744%, 84.274292%)" offset="0.15625"/><stop stop-opacity="1" stop-color="rgb(28.199768%, 58.599854%, 84.086609%)" offset="0.160156"/><stop stop-opacity="1" stop-color="rgb(28.199768%, 58.399963%, 83.898926%)" offset="0.164062"/><stop stop-opacity="1" stop-color="rgb(28.199768%, 58.206177%, 83.705139%)" offset="0.171875"/><stop stop-opacity="1" stop-color="rgb(28.199768%, 57.821655%, 83.505249%)" offset="0.179687"/><stop stop-opacity="1" stop-color="rgb(27.999878%, 57.48291%, 83.299255%)" offset="0.183594"/><stop stop-opacity="1" stop-color="rgb(27.799988%, 57.336426%, 83.099365%)" offset="0.1875"/><stop stop-opacity="1" stop-color="rgb(27.799988%, 57.116699%, 82.899475%)" offset="0.191406"/><stop stop-opacity="1" stop-color="rgb(27.799988%, 56.898499%, 82.699585%)" offset="0.195312"/><stop stop-opacity="1" stop-color="rgb(27.799988%, 56.698608%, 82.695007%)" offset="0.199219"/><stop stop-opacity="1" stop-color="rgb(27.799988%, 56.498718%, 82.69043%)" offset="0.203125"/><stop stop-opacity="1" stop-color="rgb(27.651978%, 56.30188%, 82.543945%)" offset="0.207031"/><stop stop-opacity="1" stop-color="rgb(27.503967%, 56.105042%, 82.398987%)" offset="0.210937"/><stop stop-opacity="1" stop-color="rgb(27.500916%, 55.9021%, 82.199097%)" offset="0.214844"/><stop stop-opacity="1" stop-color="rgb(27.49939%, 55.699158%, 81.999207%)" offset="0.21875"/><stop stop-opacity="1" stop-color="rgb(27.49939%, 55.499268%, 81.820679%)" offset="0.222656"/><stop stop-opacity="1" stop-color="rgb(27.49939%, 55.299377%, 81.643677%)" offset="0.226562"/><stop stop-opacity="1" stop-color="rgb(27.2995%, 55.079651%, 81.602478%)" offset="0.230469"/><stop stop-opacity="1" stop-color="rgb(27.099609%, 54.86145%, 81.561279%)" offset="0.234375"/><stop stop-opacity="1" stop-color="rgb(27.090454%, 54.670715%, 81.3797%)" offset="0.242187"/><stop stop-opacity="1" stop-color="rgb(26.890564%, 54.289246%, 81.199646%)" offset="0.25"/><stop stop-opacity="1" stop-color="rgb(26.699829%, 53.898621%, 80.999756%)" offset="0.253906"/><stop stop-opacity="1" stop-color="rgb(26.699829%, 53.69873%, 80.799866%)" offset="0.257812"/><stop stop-opacity="1" stop-color="rgb(26.699829%, 53.49884%, 80.618286%)" offset="0.261719"/><stop stop-opacity="1" stop-color="rgb(26.699829%, 53.29895%, 80.436707%)" offset="0.265625"/><stop stop-opacity="1" stop-color="rgb(26.676941%, 53.076172%, 80.395508%)" offset="0.269531"/><stop stop-opacity="1" stop-color="rgb(26.655579%, 52.854919%, 80.355835%)" offset="0.273438"/><stop stop-opacity="1" stop-color="rgb(26.477051%, 52.526855%, 80.1651%)" offset="0.277344"/><stop stop-opacity="1" stop-color="rgb(26.298523%, 52.198792%, 79.974365%)" offset="0.28125"/><stop stop-opacity="1" stop-color="rgb(26.298523%, 51.998901%, 79.78363%)" offset="0.285156"/><stop stop-opacity="1" stop-color="rgb(26.298523%, 51.799011%, 79.592896%)" offset="0.289062"/><stop stop-opacity="1" stop-color="rgb(26.104736%, 51.605225%, 79.396057%)" offset="0.292969"/><stop stop-opacity="1" stop-color="rgb(25.912476%, 51.411438%, 79.199219%)" offset="0.296875"/><stop stop-opacity="1" stop-color="rgb(25.904846%, 51.220703%, 79.199219%)" offset="0.304688"/><stop stop-opacity="1" stop-color="rgb(25.723267%, 50.839233%, 78.999329%)" offset="0.308594"/><stop stop-opacity="1" stop-color="rgb(25.549316%, 50.650024%, 78.799438%)" offset="0.3125"/><stop stop-opacity="1" stop-color="rgb(25.523376%, 50.424194%, 78.599548%)" offset="0.316406"/><stop stop-opacity="1" stop-color="rgb(25.498962%, 50.19989%, 78.399658%)" offset="0.320312"/><stop stop-opacity="1" stop-color="rgb(25.498962%, 50.192261%, 78.399658%)" offset="0.328125"/><stop stop-opacity="1" stop-color="rgb(25.498962%, 49.992371%, 78.20282%)" offset="0.332031"/><stop stop-opacity="1" stop-color="rgb(25.498962%, 49.798584%, 78.005981%)" offset="0.335938"/><stop stop-opacity="1" stop-color="rgb(25.311279%, 49.598694%, 78.00293%)" offset="0.339844"/><stop stop-opacity="1" stop-color="rgb(25.123596%, 49.398804%, 77.999878%)" offset="0.34375"/><stop stop-opacity="1" stop-color="rgb(25.111389%, 49.198914%, 77.798462%)" offset="0.347656"/><stop stop-opacity="1" stop-color="rgb(25.099182%, 48.999023%, 77.598572%)" offset="0.351562"/><stop stop-opacity="1" stop-color="rgb(25.099182%, 48.779297%, 77.449036%)" offset="0.355469"/><stop stop-opacity="1" stop-color="rgb(25.099182%, 48.561096%, 77.2995%)" offset="0.359375"/><stop stop-opacity="1" stop-color="rgb(25.090027%, 48.179626%, 77.099609%)" offset="0.363281"/><stop stop-opacity="1" stop-color="rgb(25.080872%, 47.799683%, 76.899719%)" offset="0.367188"/><stop stop-opacity="1" stop-color="rgb(24.890137%, 47.648621%, 76.899719%)" offset="0.375"/><stop stop-opacity="1" stop-color="rgb(24.508667%, 47.499084%, 76.699829%)" offset="0.378906"/><stop stop-opacity="1" stop-color="rgb(24.317932%, 47.499084%, 76.499939%)" offset="0.382812"/><stop stop-opacity="1" stop-color="rgb(24.308777%, 47.299194%, 76.318359%)" offset="0.386719"/><stop stop-opacity="1" stop-color="rgb(24.299622%, 47.099304%, 76.13678%)" offset="0.390625"/><stop stop-opacity="1" stop-color="rgb(24.299622%, 46.876526%, 76.116943%)" offset="0.394531"/><stop stop-opacity="1" stop-color="rgb(24.299622%, 46.655273%, 76.098633%)" offset="0.398438"/><stop stop-opacity="1" stop-color="rgb(24.299622%, 46.464539%, 75.898743%)" offset="0.402344"/><stop stop-opacity="1" stop-color="rgb(24.299622%, 46.273804%, 75.698853%)" offset="0.40625"/><stop stop-opacity="1" stop-color="rgb(24.29657%, 46.083069%, 75.695801%)" offset="0.414062"/><stop stop-opacity="1" stop-color="rgb(24.09668%, 45.695496%, 75.495911%)" offset="0.417969"/><stop stop-opacity="1" stop-color="rgb(23.899841%, 45.498657%, 75.299072%)" offset="0.421875"/><stop stop-opacity="1" stop-color="rgb(23.899841%, 45.298767%, 75.114441%)" offset="0.425781"/><stop stop-opacity="1" stop-color="rgb(23.899841%, 45.098877%, 74.931335%)" offset="0.429688"/><stop stop-opacity="1" stop-color="rgb(23.899841%, 44.898987%, 74.740601%)" offset="0.433594"/><stop stop-opacity="1" stop-color="rgb(23.899841%, 44.699097%, 74.549866%)" offset="0.4375"/><stop stop-opacity="1" stop-color="rgb(23.883057%, 44.483948%, 74.508667%)" offset="0.441406"/><stop stop-opacity="1" stop-color="rgb(23.867798%, 44.268799%, 74.467468%)" offset="0.445312"/><stop stop-opacity="1" stop-color="rgb(23.683167%, 44.078064%, 74.282837%)" offset="0.453125"/><stop stop-opacity="1" stop-color="rgb(23.301697%, 43.693542%, 73.902893%)" offset="0.457031"/><stop stop-opacity="1" stop-color="rgb(23.104858%, 43.499756%, 73.706055%)" offset="0.460938"/><stop stop-opacity="1" stop-color="rgb(23.101807%, 43.312073%, 73.703003%)" offset="0.46875"/><stop stop-opacity="1" stop-color="rgb(23.098755%, 42.933655%, 73.521423%)" offset="0.476562"/><stop stop-opacity="1" stop-color="rgb(23.098755%, 42.570496%, 73.301697%)" offset="0.484375"/><stop stop-opacity="1" stop-color="rgb(23.098755%, 42.199707%, 73.080444%)" offset="0.488281"/><stop stop-opacity="1" stop-color="rgb(23.098755%, 41.999817%, 72.898865%)" offset="0.492188"/><stop stop-opacity="1" stop-color="rgb(23.098755%, 41.799927%, 72.698975%)" offset="0.496094"/><stop stop-opacity="1" stop-color="rgb(23.098755%, 41.600037%, 72.499084%)" offset="0.5"/><stop stop-opacity="1" stop-color="rgb(22.898865%, 41.409302%, 72.499084%)" offset="0.503906"/><stop stop-opacity="1" stop-color="rgb(22.698975%, 41.218567%, 72.499084%)" offset="0.507812"/><stop stop-opacity="1" stop-color="rgb(22.698975%, 41.027832%, 72.348022%)" offset="0.515625"/><stop stop-opacity="1" stop-color="rgb(22.549438%, 40.795898%, 71.998596%)" offset="0.519531"/><stop stop-opacity="1" stop-color="rgb(22.399902%, 40.756226%, 71.798706%)" offset="0.523438"/><stop stop-opacity="1" stop-color="rgb(22.399902%, 40.565491%, 71.786499%)" offset="0.53125"/><stop stop-opacity="1" stop-color="rgb(22.399902%, 40.184021%, 71.586609%)" offset="0.539063"/><stop stop-opacity="1" stop-color="rgb(22.399902%, 39.796448%, 71.205139%)" offset="0.542969"/><stop stop-opacity="1" stop-color="rgb(22.399902%, 39.599609%, 71.011353%)" offset="0.546875"/><stop stop-opacity="1" stop-color="rgb(22.198486%, 39.399719%, 71.005249%)" offset="0.550781"/><stop stop-opacity="1" stop-color="rgb(21.998596%, 39.199829%, 70.999146%)" offset="0.554688"/><stop stop-opacity="1" stop-color="rgb(21.998596%, 38.998413%, 70.799255%)" offset="0.558594"/><stop stop-opacity="1" stop-color="rgb(21.998596%, 38.798523%, 70.599365%)" offset="0.5625"/><stop stop-opacity="1" stop-color="rgb(21.998596%, 38.598633%, 70.584106%)" offset="0.566406"/><stop stop-opacity="1" stop-color="rgb(21.998596%, 38.398743%, 70.568848%)" offset="0.570313"/><stop stop-opacity="1" stop-color="rgb(21.998596%, 38.198853%, 70.384216%)" offset="0.574219"/><stop stop-opacity="1" stop-color="rgb(21.998596%, 37.998962%, 70.199585%)" offset="0.578125"/><stop stop-opacity="1" stop-color="rgb(21.998596%, 37.802124%, 70.002747%)" offset="0.582031"/><stop stop-opacity="1" stop-color="rgb(21.998596%, 37.605286%, 69.805908%)" offset="0.585938"/><stop stop-opacity="1" stop-color="rgb(21.798706%, 37.602234%, 69.802856%)" offset="0.589844"/><stop stop-opacity="1" stop-color="rgb(21.598816%, 37.599182%, 69.799805%)" offset="0.59375"/><stop stop-opacity="1" stop-color="rgb(21.420288%, 37.44812%, 69.598389%)" offset="0.597656"/><stop stop-opacity="1" stop-color="rgb(21.243286%, 37.298584%, 69.398499%)" offset="0.601563"/><stop stop-opacity="1" stop-color="rgb(21.220398%, 37.080383%, 69.198608%)" offset="0.605469"/><stop stop-opacity="1" stop-color="rgb(21.199036%, 36.862183%, 68.998718%)" offset="0.609375"/><stop stop-opacity="1" stop-color="rgb(21.199036%, 36.671448%, 68.798828%)" offset="0.613281"/><stop stop-opacity="1" stop-color="rgb(21.199036%, 36.480713%, 68.598938%)" offset="0.617188"/><stop stop-opacity="1" stop-color="rgb(21.199036%, 36.289978%, 68.598938%)" offset="0.625"/><stop stop-opacity="1" stop-color="rgb(21.199036%, 35.908508%, 68.408203%)" offset="0.632813"/><stop stop-opacity="1" stop-color="rgb(21.199036%, 35.527039%, 68.208313%)" offset="0.640625"/><stop stop-opacity="1" stop-color="rgb(20.999146%, 35.295105%, 67.999268%)" offset="0.644531"/><stop stop-opacity="1" stop-color="rgb(20.799255%, 35.255432%, 67.799377%)" offset="0.648438"/><stop stop-opacity="1" stop-color="rgb(20.799255%, 35.064697%, 67.790222%)" offset="0.65625"/><stop stop-opacity="1" stop-color="rgb(20.799255%, 34.686279%, 67.63916%)" offset="0.664063"/><stop stop-opacity="1" stop-color="rgb(20.799255%, 34.30481%, 67.498779%)" offset="0.671875"/><stop stop-opacity="1" stop-color="rgb(20.599365%, 33.921814%, 67.298889%)" offset="0.675781"/><stop stop-opacity="1" stop-color="rgb(20.399475%, 33.731079%, 67.098999%)" offset="0.679688"/><stop stop-opacity="1" stop-color="rgb(20.399475%, 33.714294%, 66.899109%)" offset="0.683594"/><stop stop-opacity="1" stop-color="rgb(20.399475%, 33.699036%, 66.699219%)" offset="0.6875"/><stop stop-opacity="1" stop-color="rgb(20.399475%, 33.483887%, 66.499329%)" offset="0.691406"/><stop stop-opacity="1" stop-color="rgb(20.399475%, 33.268738%, 66.299438%)" offset="0.695313"/><stop stop-opacity="1" stop-color="rgb(20.393372%, 33.078003%, 66.293335%)" offset="0.703125"/><stop stop-opacity="1" stop-color="rgb(20.193481%, 32.693481%, 66.093445%)" offset="0.710938"/><stop stop-opacity="1" stop-color="rgb(19.999695%, 32.357788%, 65.899658%)" offset="0.71875"/><stop stop-opacity="1" stop-color="rgb(19.999695%, 32.029724%, 65.699768%)" offset="0.722656"/><stop stop-opacity="1" stop-color="rgb(19.999695%, 31.843567%, 65.499878%)" offset="0.726563"/><stop stop-opacity="1" stop-color="rgb(19.979858%, 31.802368%, 65.298462%)" offset="0.730469"/><stop stop-opacity="1" stop-color="rgb(19.961548%, 31.761169%, 65.098572%)" offset="0.734375"/><stop stop-opacity="1" stop-color="rgb(19.779968%, 31.570435%, 65.089417%)" offset="0.742188"/><stop stop-opacity="1" stop-color="rgb(19.599915%, 31.190491%, 64.889526%)" offset="0.75"/><stop stop-opacity="1" stop-color="rgb(19.599915%, 30.809021%, 64.508057%)" offset="0.757813"/><stop stop-opacity="1" stop-color="rgb(19.599915%, 30.427551%, 64.308167%)" offset="0.765625"/><stop stop-opacity="1" stop-color="rgb(19.577026%, 30.01709%, 64.099121%)" offset="0.769531"/><stop stop-opacity="1" stop-color="rgb(19.555664%, 29.798889%, 63.899231%)" offset="0.773438"/><stop stop-opacity="1" stop-color="rgb(19.377136%, 29.786682%, 63.887024%)" offset="0.78125"/><stop stop-opacity="1" stop-color="rgb(19.198608%, 29.586792%, 63.687134%)" offset="0.789063"/><stop stop-opacity="1" stop-color="rgb(19.198608%, 29.205322%, 63.499451%)" offset="0.796875"/><stop stop-opacity="1" stop-color="rgb(19.198608%, 29.005432%, 63.299561%)" offset="0.800781"/><stop stop-opacity="1" stop-color="rgb(19.198608%, 28.999329%, 63.09967%)" offset="0.804688"/><stop stop-opacity="1" stop-color="rgb(19.198608%, 28.799438%, 62.924194%)" offset="0.808594"/><stop stop-opacity="1" stop-color="rgb(19.198608%, 28.599548%, 62.748718%)" offset="0.8125"/><stop stop-opacity="1" stop-color="rgb(18.998718%, 28.382874%, 62.712097%)" offset="0.816406"/><stop stop-opacity="1" stop-color="rgb(18.798828%, 28.167725%, 62.675476%)" offset="0.820313"/><stop stop-opacity="1" stop-color="rgb(18.798828%, 27.983093%, 62.530518%)" offset="0.828125"/><stop stop-opacity="1" stop-color="rgb(18.798828%, 27.648926%, 62.193298%)" offset="0.84375"/><stop stop-opacity="1" stop-color="rgb(18.6203%, 27.2995%, 61.799622%)" offset="0.847656"/><stop stop-opacity="1" stop-color="rgb(18.443298%, 27.099609%, 61.599731%)" offset="0.851563"/><stop stop-opacity="1" stop-color="rgb(18.42041%, 26.899719%, 61.579895%)" offset="0.855469"/><stop stop-opacity="1" stop-color="rgb(18.399048%, 26.699829%, 61.561584%)" offset="0.859375"/><stop stop-opacity="1" stop-color="rgb(18.399048%, 26.689148%, 61.380005%)" offset="0.867188"/><stop stop-opacity="1" stop-color="rgb(18.399048%, 26.489258%, 61.199951%)" offset="0.875"/><stop stop-opacity="1" stop-color="rgb(18.399048%, 26.098633%, 60.998535%)" offset="0.878906"/><stop stop-opacity="1" stop-color="rgb(18.399048%, 25.898743%, 60.798645%)" offset="0.882813"/><stop stop-opacity="1" stop-color="rgb(18.399048%, 25.698853%, 60.617065%)" offset="0.886719"/><stop stop-opacity="1" stop-color="rgb(18.399048%, 25.498962%, 60.437012%)" offset="0.890625"/><stop stop-opacity="1" stop-color="rgb(18.199158%, 25.299072%, 60.395813%)" offset="0.894531"/><stop stop-opacity="1" stop-color="rgb(17.999268%, 25.099182%, 60.35614%)" offset="0.898438"/><stop stop-opacity="1" stop-color="rgb(17.999268%, 25.086975%, 60.177612%)" offset="0.90625"/><stop stop-opacity="1" stop-color="rgb(17.999268%, 24.887085%, 59.799194%)" offset="0.910156"/><stop stop-opacity="1" stop-color="rgb(17.999268%, 24.699402%, 59.599304%)" offset="0.914063"/><stop stop-opacity="1" stop-color="rgb(17.999268%, 24.505615%, 59.599304%)" offset="0.921875"/><stop stop-opacity="1" stop-color="rgb(17.999268%, 24.305725%, 59.414673%)" offset="0.929688"/><stop stop-opacity="1" stop-color="rgb(17.823792%, 24.099731%, 59.214783%)" offset="0.933594"/><stop stop-opacity="1" stop-color="rgb(17.649841%, 23.899841%, 59.199524%)" offset="0.9375"/><stop stop-opacity="1" stop-color="rgb(17.623901%, 23.698425%, 58.999634%)" offset="0.941406"/><stop stop-opacity="1" stop-color="rgb(17.599487%, 23.498535%, 58.799744%)" offset="0.945313"/><stop stop-opacity="1" stop-color="rgb(17.599487%, 23.298645%, 58.599854%)" offset="0.949219"/><stop stop-opacity="1" stop-color="rgb(17.599487%, 23.098755%, 58.399963%)" offset="0.953125"/><stop stop-opacity="1" stop-color="rgb(17.599487%, 23.098755%, 58.399963%)" offset="0.960938"/><stop stop-opacity="1" stop-color="rgb(17.459106%, 22.898865%, 58.21228%)" offset="0.964844"/><stop stop-opacity="1" stop-color="rgb(17.318726%, 22.698975%, 58.024597%)" offset="0.96875"/><stop stop-opacity="1" stop-color="rgb(17.308044%, 22.564697%, 58.010864%)" offset="0.976563"/><stop stop-opacity="1" stop-color="rgb(17.298889%, 22.415161%, 57.798767%)" offset="0.980469"/><stop stop-opacity="1" stop-color="rgb(17.298889%, 22.399902%, 57.598877%)" offset="0.984375"/><stop stop-opacity="1" stop-color="rgb(17.298889%, 22.198486%, 57.591248%)" offset="0.988281"/><stop stop-opacity="1" stop-color="rgb(17.298889%, 21.998596%, 57.585144%)" offset="0.992188"/><stop stop-opacity="1" stop-color="rgb(17.298889%, 21.998596%, 57.441711%)" offset="1"/></linearGradient><clipPath id="697b8b8e3d"><path d="M 141.738281 90.1875 L 233.261719 90.1875 L 233.261719 181.429688 L 141.738281 181.429688 Z M 141.738281 90.1875 " clip-rule="nonzero"/></clipPath><clipPath id="ccfbca5970"><path d="M 187.5 169.507812 C 168.832031 169.507812 153.695312 154.417969 153.695312 135.808594 C 153.695312 117.199219 168.832031 102.109375 187.5 102.109375 C 206.167969 102.109375 221.304688 117.199219 221.304688 135.808594 C 221.304688 154.417969 206.167969 169.507812 187.5 169.507812 Z M 187.5 90.1875 C 162.226562 90.1875 141.738281 110.613281 141.738281 135.808594 C 141.738281 161.003906 162.226562 181.429688 187.5 181.429688 C 212.773438 181.429688 233.261719 161.003906 233.261719 135.808594 C 233.261719 110.613281 212.773438 90.1875 187.5 90.1875 Z M 187.5 90.1875 " clip-rule="nonzero"/></clipPath><clipPath id="e64f59091b"><path d="M 187.5 169.507812 C 168.832031 169.507812 153.695312 154.417969 153.695312 135.808594 C 153.695312 117.199219 168.832031 102.109375 187.5 102.109375 C 206.167969 102.109375 221.304688 117.199219 221.304688 135.808594 C 221.304688 154.417969 206.167969 169.507812 187.5 169.507812 Z M 187.5 90.1875 C 162.226562 90.1875 141.738281 110.613281 141.738281 135.808594 C 141.738281 161.003906 162.226562 181.429688 187.5 181.429688 C 212.773438 181.429688 233.261719 161.003906 233.261719 135.808594 C 233.261719 110.613281 212.773438 90.1875 187.5 90.1875 " clip-rule="nonzero"/></clipPath><linearGradient x1="0.0000015572" gradientTransform="matrix(91.524954, 0, 0, 91.239828, 141.737184, 135.807937)" y1="0" x2="0.999991" gradientUnits="userSpaceOnUse" y2="0" id="52b7c4212f"><stop stop-opacity="1" stop-color="rgb(31.799316%, 67.799377%, 89.7995%)" offset="0"/><stop stop-opacity="1" stop-color="rgb(31.608582%, 67.655945%, 89.608765%)" offset="0.0078125"/><stop stop-opacity="1" stop-color="rgb(31.227112%, 67.324829%, 89.408875%)" offset="0.015625"/><stop stop-opacity="1" stop-color="rgb(31.018066%, 66.896057%, 89.199829%)" offset="0.0195312"/><stop stop-opacity="1" stop-color="rgb(30.999756%, 66.654968%, 88.999939%)" offset="0.0234375"/><stop stop-opacity="1" stop-color="rgb(30.999756%, 66.27655%, 88.798523%)" offset="0.0273438"/><stop stop-opacity="1" stop-color="rgb(30.999756%, 65.899658%, 88.598633%)" offset="0.03125"/><stop stop-opacity="1" stop-color="rgb(30.799866%, 65.699768%, 88.398743%)" offset="0.0351562"/><stop stop-opacity="1" stop-color="rgb(30.599976%, 65.499878%, 88.198853%)" offset="0.0390625"/><stop stop-opacity="1" stop-color="rgb(30.599976%, 65.306091%, 88.005066%)" offset="0.046875"/><stop stop-opacity="1" stop-color="rgb(30.599976%, 64.92157%, 87.805176%)" offset="0.0546875"/><stop stop-opacity="1" stop-color="rgb(30.599976%, 64.5401%, 87.649536%)" offset="0.0625"/><stop stop-opacity="1" stop-color="rgb(30.383301%, 64.108276%, 87.298584%)" offset="0.0664062"/><stop stop-opacity="1" stop-color="rgb(30.168152%, 63.867188%, 87.098694%)" offset="0.0703125"/><stop stop-opacity="1" stop-color="rgb(29.983521%, 63.676453%, 87.09259%)" offset="0.078125"/><stop stop-opacity="1" stop-color="rgb(29.798889%, 63.096619%, 86.8927%)" offset="0.0820312"/><stop stop-opacity="1" stop-color="rgb(29.798889%, 62.705994%, 86.698914%)" offset="0.0859375"/><stop stop-opacity="1" stop-color="rgb(29.798889%, 62.561035%, 86.51123%)" offset="0.09375"/><stop stop-opacity="1" stop-color="rgb(29.598999%, 62.229919%, 86.31134%)" offset="0.0976563"/><stop stop-opacity="1" stop-color="rgb(29.399109%, 62.042236%, 86.299133%)" offset="0.101563"/><stop stop-opacity="1" stop-color="rgb(29.399109%, 61.820984%, 86.099243%)" offset="0.105469"/><stop stop-opacity="1" stop-color="rgb(29.399109%, 61.599731%, 85.899353%)" offset="0.109375"/><stop stop-opacity="1" stop-color="rgb(29.389954%, 61.399841%, 85.699463%)" offset="0.113281"/><stop stop-opacity="1" stop-color="rgb(29.380798%, 61.199951%, 85.499573%)" offset="0.117188"/><stop stop-opacity="1" stop-color="rgb(29.190063%, 60.998535%, 85.299683%)" offset="0.121094"/><stop stop-opacity="1" stop-color="rgb(28.999329%, 60.798645%, 85.099792%)" offset="0.125"/><stop stop-opacity="1" stop-color="rgb(28.999329%, 60.60791%, 85.099792%)" offset="0.132812"/><stop stop-opacity="1" stop-color="rgb(28.999329%, 60.20813%, 84.898376%)" offset="0.136719"/><stop stop-opacity="1" stop-color="rgb(28.999329%, 59.999084%, 84.698486%)" offset="0.140625"/><stop stop-opacity="1" stop-color="rgb(28.799438%, 59.776306%, 84.498596%)" offset="0.144531"/><stop stop-opacity="1" stop-color="rgb(28.599548%, 59.555054%, 84.298706%)" offset="0.148438"/><stop stop-opacity="1" stop-color="rgb(28.399658%, 59.176636%, 84.286499%)" offset="0.152344"/><stop stop-opacity="1" stop-color="rgb(28.199768%, 58.799744%, 84.274292%)" offset="0.15625"/><stop stop-opacity="1" stop-color="rgb(28.199768%, 58.599854%, 84.086609%)" offset="0.160156"/><stop stop-opacity="1" stop-color="rgb(28.199768%, 58.399963%, 83.898926%)" offset="0.164062"/><stop stop-opacity="1" stop-color="rgb(28.199768%, 58.206177%, 83.705139%)" offset="0.171875"/><stop stop-opacity="1" stop-color="rgb(28.199768%, 57.821655%, 83.505249%)" offset="0.179687"/><stop stop-opacity="1" stop-color="rgb(27.999878%, 57.48291%, 83.299255%)" offset="0.183594"/><stop stop-opacity="1" stop-color="rgb(27.799988%, 57.336426%, 83.099365%)" offset="0.1875"/><stop stop-opacity="1" stop-color="rgb(27.799988%, 57.116699%, 82.899475%)" offset="0.191406"/><stop stop-opacity="1" stop-color="rgb(27.799988%, 56.898499%, 82.699585%)" offset="0.195313"/><stop stop-opacity="1" stop-color="rgb(27.799988%, 56.698608%, 82.695007%)" offset="0.199219"/><stop stop-opacity="1" stop-color="rgb(27.799988%, 56.498718%, 82.69043%)" offset="0.203125"/><stop stop-opacity="1" stop-color="rgb(27.651978%, 56.30188%, 82.543945%)" offset="0.207031"/><stop stop-opacity="1" stop-color="rgb(27.503967%, 56.105042%, 82.398987%)" offset="0.210938"/><stop stop-opacity="1" stop-color="rgb(27.500916%, 55.9021%, 82.199097%)" offset="0.214844"/><stop stop-opacity="1" stop-color="rgb(27.49939%, 55.699158%, 81.999207%)" offset="0.21875"/><stop stop-opacity="1" stop-color="rgb(27.49939%, 55.499268%, 81.820679%)" offset="0.222656"/><stop stop-opacity="1" stop-color="rgb(27.49939%, 55.299377%, 81.643677%)" offset="0.226562"/><stop stop-opacity="1" stop-color="rgb(27.2995%, 55.079651%, 81.602478%)" offset="0.230469"/><stop stop-opacity="1" stop-color="rgb(27.099609%, 54.86145%, 81.561279%)" offset="0.234375"/><stop stop-opacity="1" stop-color="rgb(27.090454%, 54.670715%, 81.3797%)" offset="0.242188"/><stop stop-opacity="1" stop-color="rgb(26.890564%, 54.289246%, 81.199646%)" offset="0.25"/><stop stop-opacity="1" stop-color="rgb(26.699829%, 53.898621%, 80.999756%)" offset="0.253906"/><stop stop-opacity="1" stop-color="rgb(26.699829%, 53.69873%, 80.799866%)" offset="0.257812"/><stop stop-opacity="1" stop-color="rgb(26.699829%, 53.49884%, 80.618286%)" offset="0.261719"/><stop stop-opacity="1" stop-color="rgb(26.699829%, 53.29895%, 80.436707%)" offset="0.265625"/><stop stop-opacity="1" stop-color="rgb(26.676941%, 53.076172%, 80.395508%)" offset="0.269531"/><stop stop-opacity="1" stop-color="rgb(26.655579%, 52.854919%, 80.355835%)" offset="0.273438"/><stop stop-opacity="1" stop-color="rgb(26.477051%, 52.526855%, 80.1651%)" offset="0.277344"/><stop stop-opacity="1" stop-color="rgb(26.298523%, 52.198792%, 79.974365%)" offset="0.28125"/><stop stop-opacity="1" stop-color="rgb(26.298523%, 51.998901%, 79.78363%)" offset="0.285156"/><stop stop-opacity="1" stop-color="rgb(26.298523%, 51.799011%, 79.592896%)" offset="0.289062"/><stop stop-opacity="1" stop-color="rgb(26.104736%, 51.605225%, 79.396057%)" offset="0.292969"/><stop stop-opacity="1" stop-color="rgb(25.912476%, 51.411438%, 79.199219%)" offset="0.296875"/><stop stop-opacity="1" stop-color="rgb(25.904846%, 51.220703%, 79.199219%)" offset="0.304688"/><stop stop-opacity="1" stop-color="rgb(25.723267%, 50.839233%, 78.999329%)" offset="0.308594"/><stop stop-opacity="1" stop-color="rgb(25.549316%, 50.650024%, 78.799438%)" offset="0.3125"/><stop stop-opacity="1" stop-color="rgb(25.523376%, 50.424194%, 78.599548%)" offset="0.316406"/><stop stop-opacity="1" stop-color="rgb(25.498962%, 50.19989%, 78.399658%)" offset="0.320312"/><stop stop-opacity="1" stop-color="rgb(25.498962%, 50.192261%, 78.399658%)" offset="0.328125"/><stop stop-opacity="1" stop-color="rgb(25.498962%, 49.992371%, 78.20282%)" offset="0.332031"/><stop stop-opacity="1" stop-color="rgb(25.498962%, 49.798584%, 78.005981%)" offset="0.335937"/><stop stop-opacity="1" stop-color="rgb(25.311279%, 49.598694%, 78.00293%)" offset="0.339844"/><stop stop-opacity="1" stop-color="rgb(25.125122%, 49.398804%, 77.999878%)" offset="0.34375"/><stop stop-opacity="1" stop-color="rgb(25.111389%, 49.198914%, 77.798462%)" offset="0.347656"/><stop stop-opacity="1" stop-color="rgb(25.099182%, 48.999023%, 77.598572%)" offset="0.351562"/><stop stop-opacity="1" stop-color="rgb(25.099182%, 48.780823%, 77.449036%)" offset="0.355469"/><stop stop-opacity="1" stop-color="rgb(25.099182%, 48.562622%, 77.2995%)" offset="0.359375"/><stop stop-opacity="1" stop-color="rgb(25.090027%, 48.181152%, 77.099609%)" offset="0.363281"/><stop stop-opacity="1" stop-color="rgb(25.080872%, 47.799683%, 76.899719%)" offset="0.367188"/><stop stop-opacity="1" stop-color="rgb(24.890137%, 47.648621%, 76.899719%)" offset="0.375"/><stop stop-opacity="1" stop-color="rgb(24.508667%, 47.499084%, 76.699829%)" offset="0.378906"/><stop stop-opacity="1" stop-color="rgb(24.317932%, 47.499084%, 76.499939%)" offset="0.382812"/><stop stop-opacity="1" stop-color="rgb(24.308777%, 47.299194%, 76.318359%)" offset="0.386719"/><stop stop-opacity="1" stop-color="rgb(24.299622%, 47.099304%, 76.13678%)" offset="0.390625"/><stop stop-opacity="1" stop-color="rgb(24.299622%, 46.876526%, 76.116943%)" offset="0.394531"/><stop stop-opacity="1" stop-color="rgb(24.299622%, 46.655273%, 76.098633%)" offset="0.398438"/><stop stop-opacity="1" stop-color="rgb(24.299622%, 46.464539%, 75.898743%)" offset="0.402344"/><stop stop-opacity="1" stop-color="rgb(24.299622%, 46.273804%, 75.698853%)" offset="0.40625"/><stop stop-opacity="1" stop-color="rgb(24.29657%, 46.083069%, 75.695801%)" offset="0.414063"/><stop stop-opacity="1" stop-color="rgb(24.09668%, 45.695496%, 75.495911%)" offset="0.417969"/><stop stop-opacity="1" stop-color="rgb(23.899841%, 45.498657%, 75.299072%)" offset="0.421875"/><stop stop-opacity="1" stop-color="rgb(23.899841%, 45.298767%, 75.114441%)" offset="0.425781"/><stop stop-opacity="1" stop-color="rgb(23.899841%, 45.098877%, 74.931335%)" offset="0.429688"/><stop stop-opacity="1" stop-color="rgb(23.899841%, 44.898987%, 74.740601%)" offset="0.433594"/><stop stop-opacity="1" stop-color="rgb(23.899841%, 44.699097%, 74.549866%)" offset="0.4375"/><stop stop-opacity="1" stop-color="rgb(23.883057%, 44.483948%, 74.508667%)" offset="0.441406"/><stop stop-opacity="1" stop-color="rgb(23.867798%, 44.268799%, 74.468994%)" offset="0.445312"/><stop stop-opacity="1" stop-color="rgb(23.683167%, 44.078064%, 74.284363%)" offset="0.453125"/><stop stop-opacity="1" stop-color="rgb(23.301697%, 43.693542%, 73.902893%)" offset="0.457031"/><stop stop-opacity="1" stop-color="rgb(23.106384%, 43.499756%, 73.706055%)" offset="0.460938"/><stop stop-opacity="1" stop-color="rgb(23.101807%, 43.312073%, 73.703003%)" offset="0.46875"/><stop stop-opacity="1" stop-color="rgb(23.098755%, 42.933655%, 73.521423%)" offset="0.476562"/><stop stop-opacity="1" stop-color="rgb(23.098755%, 42.570496%, 73.301697%)" offset="0.484375"/><stop stop-opacity="1" stop-color="rgb(23.098755%, 42.199707%, 73.080444%)" offset="0.488281"/><stop stop-opacity="1" stop-color="rgb(23.098755%, 41.999817%, 72.898865%)" offset="0.492188"/><stop stop-opacity="1" stop-color="rgb(23.098755%, 41.799927%, 72.698975%)" offset="0.496094"/><stop stop-opacity="1" stop-color="rgb(23.098755%, 41.600037%, 72.499084%)" offset="0.5"/><stop stop-opacity="1" stop-color="rgb(22.898865%, 41.409302%, 72.499084%)" offset="0.503906"/><stop stop-opacity="1" stop-color="rgb(22.698975%, 41.218567%, 72.499084%)" offset="0.507812"/><stop stop-opacity="1" stop-color="rgb(22.698975%, 41.027832%, 72.348022%)" offset="0.515625"/><stop stop-opacity="1" stop-color="rgb(22.549438%, 40.795898%, 71.998596%)" offset="0.519531"/><stop stop-opacity="1" stop-color="rgb(22.399902%, 40.756226%, 71.798706%)" offset="0.523437"/><stop stop-opacity="1" stop-color="rgb(22.399902%, 40.565491%, 71.786499%)" offset="0.53125"/><stop stop-opacity="1" stop-color="rgb(22.399902%, 40.184021%, 71.586609%)" offset="0.539062"/><stop stop-opacity="1" stop-color="rgb(22.399902%, 39.796448%, 71.205139%)" offset="0.542969"/><stop stop-opacity="1" stop-color="rgb(22.399902%, 39.599609%, 71.012878%)" offset="0.546875"/><stop stop-opacity="1" stop-color="rgb(22.198486%, 39.399719%, 71.005249%)" offset="0.550781"/><stop stop-opacity="1" stop-color="rgb(21.998596%, 39.199829%, 70.999146%)" offset="0.554687"/><stop stop-opacity="1" stop-color="rgb(21.998596%, 38.998413%, 70.799255%)" offset="0.558594"/><stop stop-opacity="1" stop-color="rgb(21.998596%, 38.798523%, 70.599365%)" offset="0.5625"/><stop stop-opacity="1" stop-color="rgb(21.998596%, 38.598633%, 70.584106%)" offset="0.566406"/><stop stop-opacity="1" stop-color="rgb(21.998596%, 38.398743%, 70.568848%)" offset="0.570312"/><stop stop-opacity="1" stop-color="rgb(21.998596%, 38.198853%, 70.384216%)" offset="0.574219"/><stop stop-opacity="1" stop-color="rgb(21.998596%, 37.998962%, 70.199585%)" offset="0.578125"/><stop stop-opacity="1" stop-color="rgb(21.998596%, 37.802124%, 70.002747%)" offset="0.582031"/><stop stop-opacity="1" stop-color="rgb(21.998596%, 37.605286%, 69.805908%)" offset="0.585937"/><stop stop-opacity="1" stop-color="rgb(21.798706%, 37.602234%, 69.802856%)" offset="0.589844"/><stop stop-opacity="1" stop-color="rgb(21.598816%, 37.599182%, 69.799805%)" offset="0.59375"/><stop stop-opacity="1" stop-color="rgb(21.420288%, 37.44812%, 69.598389%)" offset="0.597656"/><stop stop-opacity="1" stop-color="rgb(21.243286%, 37.298584%, 69.398499%)" offset="0.601562"/><stop stop-opacity="1" stop-color="rgb(21.220398%, 37.080383%, 69.198608%)" offset="0.605469"/><stop stop-opacity="1" stop-color="rgb(21.199036%, 36.862183%, 68.998718%)" offset="0.609375"/><stop stop-opacity="1" stop-color="rgb(21.199036%, 36.671448%, 68.798828%)" offset="0.613281"/><stop stop-opacity="1" stop-color="rgb(21.199036%, 36.480713%, 68.598938%)" offset="0.617187"/><stop stop-opacity="1" stop-color="rgb(21.199036%, 36.289978%, 68.598938%)" offset="0.625"/><stop stop-opacity="1" stop-color="rgb(21.199036%, 35.908508%, 68.408203%)" offset="0.632812"/><stop stop-opacity="1" stop-color="rgb(21.199036%, 35.527039%, 68.208313%)" offset="0.640625"/><stop stop-opacity="1" stop-color="rgb(20.999146%, 35.296631%, 67.999268%)" offset="0.644531"/><stop stop-opacity="1" stop-color="rgb(20.799255%, 35.255432%, 67.799377%)" offset="0.648437"/><stop stop-opacity="1" stop-color="rgb(20.799255%, 35.064697%, 67.790222%)" offset="0.65625"/><stop stop-opacity="1" stop-color="rgb(20.799255%, 34.686279%, 67.63916%)" offset="0.664062"/><stop stop-opacity="1" stop-color="rgb(20.799255%, 34.30481%, 67.498779%)" offset="0.671875"/><stop stop-opacity="1" stop-color="rgb(20.599365%, 33.921814%, 67.298889%)" offset="0.675781"/><stop stop-opacity="1" stop-color="rgb(20.399475%, 33.731079%, 67.098999%)" offset="0.679687"/><stop stop-opacity="1" stop-color="rgb(20.399475%, 33.714294%, 66.899109%)" offset="0.683594"/><stop stop-opacity="1" stop-color="rgb(20.399475%, 33.699036%, 66.699219%)" offset="0.6875"/><stop stop-opacity="1" stop-color="rgb(20.399475%, 33.483887%, 66.499329%)" offset="0.691406"/><stop stop-opacity="1" stop-color="rgb(20.399475%, 33.268738%, 66.299438%)" offset="0.695312"/><stop stop-opacity="1" stop-color="rgb(20.393372%, 33.078003%, 66.293335%)" offset="0.703125"/><stop stop-opacity="1" stop-color="rgb(20.193481%, 32.693481%, 66.093445%)" offset="0.710937"/><stop stop-opacity="1" stop-color="rgb(19.999695%, 32.359314%, 65.899658%)" offset="0.71875"/><stop stop-opacity="1" stop-color="rgb(19.999695%, 32.03125%, 65.699768%)" offset="0.722656"/><stop stop-opacity="1" stop-color="rgb(19.999695%, 31.843567%, 65.499878%)" offset="0.726562"/><stop stop-opacity="1" stop-color="rgb(19.981384%, 31.802368%, 65.298462%)" offset="0.730469"/><stop stop-opacity="1" stop-color="rgb(19.963074%, 31.762695%, 65.098572%)" offset="0.734375"/><stop stop-opacity="1" stop-color="rgb(19.781494%, 31.57196%, 65.089417%)" offset="0.742188"/><stop stop-opacity="1" stop-color="rgb(19.599915%, 31.190491%, 64.889526%)" offset="0.75"/><stop stop-opacity="1" stop-color="rgb(19.599915%, 30.809021%, 64.508057%)" offset="0.757812"/><stop stop-opacity="1" stop-color="rgb(19.599915%, 30.427551%, 64.308167%)" offset="0.765625"/><stop stop-opacity="1" stop-color="rgb(19.577026%, 30.01709%, 64.099121%)" offset="0.769531"/><stop stop-opacity="1" stop-color="rgb(19.555664%, 29.798889%, 63.899231%)" offset="0.773438"/><stop stop-opacity="1" stop-color="rgb(19.377136%, 29.786682%, 63.887024%)" offset="0.78125"/><stop stop-opacity="1" stop-color="rgb(19.198608%, 29.586792%, 63.687134%)" offset="0.789063"/><stop stop-opacity="1" stop-color="rgb(19.198608%, 29.205322%, 63.499451%)" offset="0.796875"/><stop stop-opacity="1" stop-color="rgb(19.198608%, 29.005432%, 63.299561%)" offset="0.800781"/><stop stop-opacity="1" stop-color="rgb(19.198608%, 28.999329%, 63.09967%)" offset="0.804688"/><stop stop-opacity="1" stop-color="rgb(19.198608%, 28.799438%, 62.924194%)" offset="0.808594"/><stop stop-opacity="1" stop-color="rgb(19.198608%, 28.599548%, 62.750244%)" offset="0.8125"/><stop stop-opacity="1" stop-color="rgb(18.998718%, 28.384399%, 62.713623%)" offset="0.816406"/><stop stop-opacity="1" stop-color="rgb(18.798828%, 28.16925%, 62.677002%)" offset="0.820313"/><stop stop-opacity="1" stop-color="rgb(18.798828%, 27.984619%, 62.532043%)" offset="0.828125"/><stop stop-opacity="1" stop-color="rgb(18.798828%, 27.648926%, 62.193298%)" offset="0.84375"/><stop stop-opacity="1" stop-color="rgb(18.6203%, 27.2995%, 61.799622%)" offset="0.847656"/><stop stop-opacity="1" stop-color="rgb(18.443298%, 27.099609%, 61.599731%)" offset="0.851563"/><stop stop-opacity="1" stop-color="rgb(18.42041%, 26.899719%, 61.581421%)" offset="0.855469"/><stop stop-opacity="1" stop-color="rgb(18.399048%, 26.699829%, 61.56311%)" offset="0.859375"/><stop stop-opacity="1" stop-color="rgb(18.399048%, 26.690674%, 61.381531%)" offset="0.867188"/><stop stop-opacity="1" stop-color="rgb(18.399048%, 26.489258%, 61.199951%)" offset="0.875"/><stop stop-opacity="1" stop-color="rgb(18.399048%, 26.098633%, 60.998535%)" offset="0.878906"/><stop stop-opacity="1" stop-color="rgb(18.399048%, 25.898743%, 60.798645%)" offset="0.882813"/><stop stop-opacity="1" stop-color="rgb(18.399048%, 25.698853%, 60.617065%)" offset="0.886719"/><stop stop-opacity="1" stop-color="rgb(18.399048%, 25.498962%, 60.437012%)" offset="0.890625"/><stop stop-opacity="1" stop-color="rgb(18.199158%, 25.299072%, 60.395813%)" offset="0.894531"/><stop stop-opacity="1" stop-color="rgb(17.999268%, 25.099182%, 60.35614%)" offset="0.898438"/><stop stop-opacity="1" stop-color="rgb(17.999268%, 25.086975%, 60.177612%)" offset="0.90625"/><stop stop-opacity="1" stop-color="rgb(17.999268%, 24.887085%, 59.799194%)" offset="0.910156"/><stop stop-opacity="1" stop-color="rgb(17.999268%, 24.699402%, 59.599304%)" offset="0.914063"/><stop stop-opacity="1" stop-color="rgb(17.999268%, 24.505615%, 59.599304%)" offset="0.921875"/><stop stop-opacity="1" stop-color="rgb(17.999268%, 24.305725%, 59.414673%)" offset="0.929688"/><stop stop-opacity="1" stop-color="rgb(17.823792%, 24.099731%, 59.214783%)" offset="0.933594"/><stop stop-opacity="1" stop-color="rgb(17.649841%, 23.899841%, 59.199524%)" offset="0.9375"/><stop stop-opacity="1" stop-color="rgb(17.623901%, 23.698425%, 58.999634%)" offset="0.941406"/><stop stop-opacity="1" stop-color="rgb(17.599487%, 23.498535%, 58.799744%)" offset="0.945313"/><stop stop-opacity="1" stop-color="rgb(17.599487%, 23.298645%, 58.599854%)" offset="0.949219"/><stop stop-opacity="1" stop-color="rgb(17.599487%, 23.098755%, 58.399963%)" offset="0.953125"/><stop stop-opacity="1" stop-color="rgb(17.599487%, 23.098755%, 58.399963%)" offset="0.960938"/><stop stop-opacity="1" stop-color="rgb(17.459106%, 22.898865%, 58.21228%)" offset="0.964844"/><stop stop-opacity="1" stop-color="rgb(17.318726%, 22.698975%, 58.024597%)" offset="0.96875"/><stop stop-opacity="1" stop-color="rgb(17.308044%, 22.564697%, 58.010864%)" offset="0.976563"/><stop stop-opacity="1" stop-color="rgb(17.298889%, 22.415161%, 57.798767%)" offset="0.980469"/><stop stop-opacity="1" stop-color="rgb(17.298889%, 22.399902%, 57.598877%)" offset="0.984375"/><stop stop-opacity="1" stop-color="rgb(17.298889%, 22.198486%, 57.591248%)" offset="0.988281"/><stop stop-opacity="1" stop-color="rgb(17.298889%, 21.998596%, 57.585144%)" offset="0.992188"/><stop stop-opacity="1" stop-color="rgb(17.298889%, 21.998596%, 57.441711%)" offset="1"/></linearGradient><clipPath id="6c96f37f3d"><path d="M 166 126 L 182 126 L 182 158.761719 L 166 158.761719 Z M 166 126 " clip-rule="nonzero"/></clipPath><clipPath id="a7fa4779ac"><path d="M 193 126 L 209 126 L 209 158.761719 L 193 158.761719 Z M 193 126 " clip-rule="nonzero"/></clipPath><clipPath id="ec5c0669f7"><path d="M 159.5625 113.011719 L 215.8125 113.011719 L 215.8125 130 L 159.5625 130 Z M 159.5625 113.011719 " clip-rule="nonzero"/></clipPath><clipPath id="3a5112d3ae"><path d="M 193 143 L 199 143 L 199 158.761719 L 193 158.761719 Z M 193 143 " clip-rule="nonzero"/></clipPath><clipPath id="8c82a7f771"><path d="M 176 143 L 182 143 L 182 158.761719 L 176 158.761719 Z M 176 143 " clip-rule="nonzero"/></clipPath><clipPath id="3adff388e8"><path d="M 186 139 L 189 139 L 189 158.761719 L 186 158.761719 Z M 186 139 " clip-rule="nonzero"/></clipPath><clipPath id="69ed5f2c3b"><path d="M 166 113.011719 L 175 113.011719 L 175 123 L 166 123 Z M 166 113.011719 " clip-rule="nonzero"/></clipPath></defs><rect x="-37.5" width="450" fill="#ffffff" y="-37.499999" height="449.999989" fill-opacity="1"/><rect x="-37.5" width="450" fill="#ffffff" y="-37.499999" height="449.999989" fill-opacity="1"/><g clip-path="url(#f919148c5a)"><g clip-path="url(#20d9856d83)"><g clip-path="url(#9a5506274f)"><path fill="url(#a3d7fcb5aa)" d="M 28.875 85.226562 L 28.875 186.390625 L 346.125 186.390625 L 346.125 85.226562 Z M 28.875 85.226562 " fill-rule="nonzero"/></g></g></g><g clip-path="url(#697b8b8e3d)"><g clip-path="url(#ccfbca5970)"><g clip-path="url(#e64f59091b)"><path fill="url(#52b7c4212f)" d="M 141.738281 90.1875 L 141.738281 181.429688 L 233.261719 181.429688 L 233.261719 90.1875 Z M 141.738281 90.1875 " fill-rule="nonzero"/></g></g></g><g fill="#225aa5" fill-opacity="1"><g transform="translate(118.845525, 255.767122)"><g><path d="M 14.609375 0 L 8.5625 0 L 8.5625 -23.515625 L 0.796875 -23.515625 L 0.796875 -28.5625 L 22.359375 -28.5625 L 22.359375 -23.515625 L 14.609375 -23.515625 Z M 14.609375 0 "/></g></g></g><g fill="#225aa5" fill-opacity="1"><g transform="translate(142.007324, 255.767122)"><g><path d="M 20.046875 0 L 3.59375 0 L 3.59375 -28.5625 L 20.046875 -28.5625 L 20.046875 -23.59375 L 9.65625 -23.59375 L 9.65625 -17.328125 L 19.3125 -17.328125 L 19.3125 -12.359375 L 9.65625 -12.359375 L 9.65625 -5 L 20.046875 -5 Z M 20.046875 0 "/></g></g></g><g fill="#225aa5" fill-opacity="1"><g transform="translate(164.407484, 255.767122)"><g><path d="M 15.71875 -23.921875 C 13.445312 -23.921875 11.6875 -23.066406 10.4375 -21.359375 C 9.1875 -19.648438 8.5625 -17.265625 8.5625 -14.203125 C 8.5625 -7.835938 10.945312 -4.65625 15.71875 -4.65625 C 17.726562 -4.65625 20.160156 -5.15625 23.015625 -6.15625 L 23.015625 -1.078125 C 20.671875 -0.0976562 18.050781 0.390625 15.15625 0.390625 C 11 0.390625 7.820312 -0.867188 5.625 -3.390625 C 3.425781 -5.910156 2.328125 -9.523438 2.328125 -14.234375 C 2.328125 -17.203125 2.863281 -19.800781 3.9375 -22.03125 C 5.019531 -24.269531 6.570312 -25.984375 8.59375 -27.171875 C 10.625 -28.367188 13 -28.96875 15.71875 -28.96875 C 18.5 -28.96875 21.285156 -28.296875 24.078125 -26.953125 L 22.125 -22.03125 C 21.0625 -22.539062 19.988281 -22.984375 18.90625 -23.359375 C 17.820312 -23.734375 16.757812 -23.921875 15.71875 -23.921875 Z M 15.71875 -23.921875 "/></g></g></g><g fill="#225aa5" fill-opacity="1"><g transform="translate(189.89328, 255.767122)"><g><path d="M 27 0 L 20.953125 0 L 20.953125 -12.328125 L 9.65625 -12.328125 L 9.65625 0 L 3.59375 0 L 3.59375 -28.5625 L 9.65625 -28.5625 L 9.65625 -17.359375 L 20.953125 -17.359375 L 20.953125 -28.5625 L 27 -28.5625 Z M 27 0 "/></g></g></g><g fill="#225aa5" fill-opacity="1"><g transform="translate(220.495764, 255.767122)"><g><path d="M 3.59375 0 L 3.59375 -28.5625 L 9.65625 -28.5625 L 9.65625 0 Z M 3.59375 0 "/></g></g></g><g fill="#225aa5" fill-opacity="1"><g transform="translate(233.736657, 255.767122)"><g><path d="M 20.046875 0 L 3.59375 0 L 3.59375 -28.5625 L 20.046875 -28.5625 L 20.046875 -23.59375 L 9.65625 -23.59375 L 9.65625 -17.328125 L 19.3125 -17.328125 L 19.3125 -12.359375 L 9.65625 -12.359375 L 9.65625 -5 L 20.046875 -5 Z M 20.046875 0 "/></g></g></g><g fill="#225aa5" fill-opacity="1"><g transform="translate(127.970431, 283.517149)"><g><path d="M 13.109375 0 L 11.21875 0 L 3.421875 -11.984375 L 3.34375 -11.984375 C 3.445312 -10.578125 3.5 -9.285156 3.5 -8.109375 L 3.5 0 L 1.96875 0 L 1.96875 -14.28125 L 3.84375 -14.28125 L 11.625 -2.34375 L 11.703125 -2.34375 C 11.691406 -2.519531 11.660156 -3.082031 11.609375 -4.03125 C 11.566406 -4.988281 11.550781 -5.671875 11.5625 -6.078125 L 11.5625 -14.28125 L 13.109375 -14.28125 Z M 13.109375 0 "/></g></g></g><g fill="#225aa5" fill-opacity="1"><g transform="translate(145.482668, 283.517149)"><g><path d="M 9.921875 0 L 1.96875 0 L 1.96875 -14.28125 L 9.921875 -14.28125 L 9.921875 -12.796875 L 3.625 -12.796875 L 3.625 -8.203125 L 9.546875 -8.203125 L 9.546875 -6.734375 L 3.625 -6.734375 L 3.625 -1.484375 L 9.921875 -1.484375 Z M 9.921875 0 "/></g></g></g><g fill="#225aa5" fill-opacity="1"><g transform="translate(159.041373, 283.517149)"><g><path d="M 1.96875 0 L 1.96875 -14.28125 L 3.625 -14.28125 L 3.625 0 Z M 1.96875 0 "/></g></g></g><g fill="#225aa5" fill-opacity="1"><g transform="translate(167.05537, 283.517149)"><g><path d="M 8.25 -7.484375 L 13.09375 -7.484375 L 13.09375 -0.53125 C 12.34375 -0.289062 11.578125 -0.109375 10.796875 0.015625 C 10.015625 0.140625 9.109375 0.203125 8.078125 0.203125 C 5.910156 0.203125 4.222656 -0.4375 3.015625 -1.71875 C 1.816406 -3.007812 1.21875 -4.816406 1.21875 -7.140625 C 1.21875 -8.617188 1.515625 -9.914062 2.109375 -11.03125 C 2.710938 -12.15625 3.570312 -13.007812 4.6875 -13.59375 C 5.8125 -14.1875 7.125 -14.484375 8.625 -14.484375 C 10.144531 -14.484375 11.5625 -14.203125 12.875 -13.640625 L 12.234375 -12.171875 C 10.941406 -12.722656 9.703125 -13 8.515625 -13 C 6.773438 -13 5.414062 -12.476562 4.4375 -11.4375 C 3.46875 -10.40625 2.984375 -8.972656 2.984375 -7.140625 C 2.984375 -5.210938 3.453125 -3.75 4.390625 -2.75 C 5.328125 -1.757812 6.707031 -1.265625 8.53125 -1.265625 C 9.519531 -1.265625 10.488281 -1.378906 11.4375 -1.609375 L 11.4375 -6 L 8.25 -6 Z M 8.25 -7.484375 "/></g></g></g><g fill="#225aa5" fill-opacity="1"><g transform="translate(184.050231, 283.517149)"><g><path d="M 12.796875 0 L 11.140625 0 L 11.140625 -6.71875 L 3.625 -6.71875 L 3.625 0 L 1.96875 0 L 1.96875 -14.28125 L 3.625 -14.28125 L 3.625 -8.203125 L 11.140625 -8.203125 L 11.140625 -14.28125 L 12.796875 -14.28125 Z M 12.796875 0 "/></g></g></g><g fill="#225aa5" fill-opacity="1"><g transform="translate(201.240331, 283.517149)"><g><path d="M 1.96875 -14.28125 L 6 -14.28125 C 7.894531 -14.28125 9.265625 -13.992188 10.109375 -13.421875 C 10.953125 -12.859375 11.375 -11.96875 11.375 -10.75 C 11.375 -9.894531 11.140625 -9.191406 10.671875 -8.640625 C 10.203125 -8.097656 9.515625 -7.742188 8.609375 -7.578125 L 8.609375 -7.484375 C 10.773438 -7.109375 11.859375 -5.96875 11.859375 -4.0625 C 11.859375 -2.789062 11.425781 -1.796875 10.5625 -1.078125 C 9.695312 -0.359375 8.488281 0 6.9375 0 L 1.96875 0 Z M 3.625 -8.171875 L 6.359375 -8.171875 C 7.523438 -8.171875 8.363281 -8.351562 8.875 -8.71875 C 9.394531 -9.082031 9.65625 -9.703125 9.65625 -10.578125 C 9.65625 -11.378906 9.367188 -11.957031 8.796875 -12.3125 C 8.222656 -12.664062 7.3125 -12.84375 6.0625 -12.84375 L 3.625 -12.84375 Z M 3.625 -6.765625 L 3.625 -1.421875 L 6.609375 -1.421875 C 7.753906 -1.421875 8.617188 -1.640625 9.203125 -2.078125 C 9.785156 -2.523438 10.078125 -3.226562 10.078125 -4.1875 C 10.078125 -5.070312 9.78125 -5.722656 9.1875 -6.140625 C 8.59375 -6.554688 7.6875 -6.765625 6.46875 -6.765625 Z M 3.625 -6.765625 "/></g></g></g><g fill="#225aa5" fill-opacity="1"><g transform="translate(216.634259, 283.517149)"><g><path d="M 14.359375 -7.15625 C 14.359375 -4.875 13.78125 -3.078125 12.625 -1.765625 C 11.46875 -0.453125 9.859375 0.203125 7.796875 0.203125 C 5.703125 0.203125 4.082031 -0.4375 2.9375 -1.71875 C 1.789062 -3.007812 1.21875 -4.828125 1.21875 -7.171875 C 1.21875 -9.503906 1.789062 -11.304688 2.9375 -12.578125 C 4.082031 -13.859375 5.710938 -14.5 7.828125 -14.5 C 9.878906 -14.5 11.476562 -13.847656 12.625 -12.546875 C 13.78125 -11.242188 14.359375 -9.445312 14.359375 -7.15625 Z M 2.984375 -7.15625 C 2.984375 -5.226562 3.394531 -3.765625 4.21875 -2.765625 C 5.039062 -1.765625 6.234375 -1.265625 7.796875 -1.265625 C 9.378906 -1.265625 10.570312 -1.757812 11.375 -2.75 C 12.1875 -3.75 12.59375 -5.21875 12.59375 -7.15625 C 12.59375 -9.082031 12.191406 -10.539062 11.390625 -11.53125 C 10.585938 -12.519531 9.398438 -13.015625 7.828125 -13.015625 C 6.242188 -13.015625 5.039062 -12.515625 4.21875 -11.515625 C 3.394531 -10.515625 2.984375 -9.0625 2.984375 -7.15625 Z M 2.984375 -7.15625 "/></g></g></g><g fill="#225aa5" fill-opacity="1"><g transform="translate(234.644351, 283.517149)"><g><path d="M 3.625 -5.9375 L 3.625 0 L 1.96875 0 L 1.96875 -14.28125 L 5.875 -14.28125 C 7.625 -14.28125 8.914062 -13.941406 9.75 -13.265625 C 10.59375 -12.597656 11.015625 -11.59375 11.015625 -10.25 C 11.015625 -8.351562 10.054688 -7.078125 8.140625 -6.421875 L 12.015625 0 L 10.0625 0 L 6.609375 -5.9375 Z M 3.625 -7.359375 L 5.90625 -7.359375 C 7.070312 -7.359375 7.925781 -7.59375 8.46875 -8.0625 C 9.019531 -8.53125 9.296875 -9.226562 9.296875 -10.15625 C 9.296875 -11.101562 9.015625 -11.785156 8.453125 -12.203125 C 7.898438 -12.617188 7.007812 -12.828125 5.78125 -12.828125 L 3.625 -12.828125 Z M 3.625 -7.359375 "/></g></g></g><g fill="#225aa5" fill-opacity="1"><g transform="translate(166.58371, 212.267139)"><g><path d="M 6.359375 0 L 4.703125 0 L 4.703125 -12.796875 L 0.171875 -12.796875 L 0.171875 -14.28125 L 10.875 -14.28125 L 10.875 -12.796875 L 6.359375 -12.796875 Z M 6.359375 0 "/></g></g></g><g fill="#225aa5" fill-opacity="1"><g transform="translate(180.083843, 212.267139)"><g><path d="M 12.796875 0 L 11.140625 0 L 11.140625 -6.71875 L 3.625 -6.71875 L 3.625 0 L 1.96875 0 L 1.96875 -14.28125 L 3.625 -14.28125 L 3.625 -8.203125 L 11.140625 -8.203125 L 11.140625 -14.28125 L 12.796875 -14.28125 Z M 12.796875 0 "/></g></g></g><g fill="#225aa5" fill-opacity="1"><g transform="translate(197.273941, 212.267139)"><g><path d="M 9.921875 0 L 1.96875 0 L 1.96875 -14.28125 L 9.921875 -14.28125 L 9.921875 -12.796875 L 3.625 -12.796875 L 3.625 -8.203125 L 9.546875 -8.203125 L 9.546875 -6.734375 L 3.625 -6.734375 L 3.625 -1.484375 L 9.921875 -1.484375 Z M 9.921875 0 "/></g></g></g><g clip-path="url(#6c96f37f3d)"><path fill="#225aa5" d="M 180.1875 158.921875 L 169.078125 158.921875 C 167.8125 158.921875 166.78125 157.890625 166.78125 156.613281 L 166.78125 127.28125 C 166.78125 126.816406 167.160156 126.433594 167.625 126.433594 C 168.089844 126.433594 168.472656 126.816406 168.472656 127.28125 L 168.472656 156.613281 C 168.472656 156.949219 168.742188 157.230469 169.078125 157.230469 L 180.1875 157.230469 C 180.652344 157.230469 181.03125 157.609375 181.03125 158.074219 C 181.03125 158.539062 180.652344 158.921875 180.1875 158.921875 Z M 180.1875 158.921875 " fill-opacity="1" fill-rule="nonzero"/></g><g clip-path="url(#a7fa4779ac)"><path fill="#225aa5" d="M 205.824219 158.921875 L 194.71875 158.921875 C 194.253906 158.921875 193.871094 158.539062 193.871094 158.074219 C 193.871094 157.609375 194.253906 157.230469 194.71875 157.230469 L 205.824219 157.230469 C 206.164062 157.230469 206.441406 156.949219 206.441406 156.613281 L 206.441406 127.28125 C 206.441406 126.816406 206.824219 126.433594 207.289062 126.433594 C 207.753906 126.433594 208.132812 126.816406 208.132812 127.28125 L 208.132812 156.613281 C 208.132812 157.890625 207.101562 158.921875 205.824219 158.921875 Z M 205.824219 158.921875 " fill-opacity="1" fill-rule="nonzero"/></g><g clip-path="url(#ec5c0669f7)"><path fill="#225aa5" d="M 211.953125 129.816406 C 211.53125 129.816406 211.101562 129.730469 210.6875 129.5625 L 188.097656 120.425781 C 187.691406 120.265625 187.21875 120.265625 186.804688 120.425781 L 164.226562 129.5625 C 163.382812 129.910156 162.460938 129.902344 161.617188 129.535156 C 160.777344 129.183594 160.128906 128.523438 159.789062 127.675781 C 159.636719 127.304688 159.554688 126.875 159.554688 126.410156 C 159.554688 125.007812 160.390625 123.773438 161.675781 123.257812 L 186.164062 113.339844 C 186.984375 113.003906 187.914062 113.003906 188.722656 113.339844 L 213.222656 123.257812 C 214.058594 123.59375 214.71875 124.246094 215.074219 125.082031 C 215.429688 125.917969 215.4375 126.839844 215.097656 127.675781 C 214.574219 128.980469 213.339844 129.816406 211.945312 129.816406 Z M 187.457031 118.617188 C 187.886719 118.617188 188.328125 118.699219 188.722656 118.859375 L 211.3125 128 C 212.257812 128.378906 213.195312 127.890625 213.535156 127.050781 C 213.703125 126.628906 213.703125 126.164062 213.527344 125.742188 C 213.347656 125.320312 213.019531 124.996094 212.605469 124.828125 L 188.097656 114.914062 C 187.691406 114.742188 187.226562 114.742188 186.824219 114.914062 L 162.316406 124.828125 C 161.675781 125.082031 161.253906 125.707031 161.253906 126.410156 C 161.253906 126.644531 161.285156 126.859375 161.363281 127.042969 C 161.539062 127.472656 161.859375 127.804688 162.285156 127.988281 C 162.707031 128.167969 163.171875 128.175781 163.59375 128 L 186.171875 118.859375 C 186.578125 118.699219 187.015625 118.617188 187.457031 118.617188 Z M 187.457031 118.617188 " fill-opacity="1" fill-rule="nonzero"/></g><g clip-path="url(#3a5112d3ae)"><path fill="#225aa5" d="M 194.71875 158.921875 C 194.253906 158.921875 193.871094 158.539062 193.871094 158.074219 C 193.871094 153.332031 194.109375 148.65625 196.949219 143.585938 C 197.175781 143.179688 197.691406 143.035156 198.097656 143.265625 C 198.503906 143.492188 198.648438 144.007812 198.421875 144.414062 C 196.011719 148.707031 195.554688 152.53125 195.554688 158.074219 C 195.554688 158.539062 195.175781 158.921875 194.710938 158.921875 Z M 194.71875 158.921875 " fill-opacity="1" fill-rule="nonzero"/></g><g clip-path="url(#8c82a7f771)"><path fill="#225aa5" d="M 180.1875 158.921875 C 179.722656 158.921875 179.339844 158.539062 179.339844 158.074219 C 179.339844 152.519531 178.886719 148.699219 176.476562 144.414062 C 176.246094 144.007812 176.390625 143.492188 176.796875 143.265625 C 177.203125 143.035156 177.71875 143.179688 177.945312 143.585938 C 180.789062 148.648438 181.023438 153.324219 181.023438 158.074219 C 181.023438 158.539062 180.644531 158.921875 180.179688 158.921875 Z M 180.1875 158.921875 " fill-opacity="1" fill-rule="nonzero"/></g><g clip-path="url(#3adff388e8)"><path fill="#225aa5" d="M 187.457031 158.828125 C 186.992188 158.828125 186.609375 158.445312 186.609375 157.980469 L 186.609375 140.617188 C 186.609375 140.152344 186.992188 139.773438 187.457031 139.773438 C 187.921875 139.773438 188.300781 140.152344 188.300781 140.617188 L 188.300781 157.980469 C 188.300781 158.445312 187.921875 158.828125 187.457031 158.828125 Z M 187.457031 158.828125 " fill-opacity="1" fill-rule="nonzero"/></g><path fill="#225aa5" d="M 187.457031 141.464844 C 185.578125 141.464844 184.050781 139.933594 184.050781 138.058594 C 184.050781 136.179688 185.578125 134.652344 187.457031 134.652344 C 189.332031 134.652344 190.863281 136.179688 190.863281 138.058594 C 190.863281 139.933594 189.332031 141.464844 187.457031 141.464844 Z M 187.457031 136.351562 C 186.511719 136.351562 185.742188 137.121094 185.742188 138.066406 C 185.742188 139.011719 186.511719 139.78125 187.457031 139.78125 C 188.402344 139.78125 189.171875 139.011719 189.171875 138.066406 C 189.171875 137.121094 188.402344 136.351562 187.457031 136.351562 Z M 187.457031 136.351562 " fill-opacity="1" fill-rule="nonzero"/><path fill="#225aa5" d="M 198.109375 144.84375 C 196.230469 144.84375 194.699219 143.316406 194.699219 141.4375 C 194.699219 139.5625 196.230469 138.03125 198.109375 138.03125 C 199.984375 138.03125 201.515625 139.5625 201.515625 141.4375 C 201.515625 143.316406 199.984375 144.84375 198.109375 144.84375 Z M 198.109375 139.730469 C 197.160156 139.730469 196.390625 140.5 196.390625 141.449219 C 196.390625 142.394531 197.160156 143.164062 198.109375 143.164062 C 199.054688 143.164062 199.824219 142.394531 199.824219 141.449219 C 199.824219 140.5 199.054688 139.730469 198.109375 139.730469 Z M 198.109375 139.730469 " fill-opacity="1" fill-rule="nonzero"/><path fill="#225aa5" d="M 176.636719 144.914062 C 174.761719 144.914062 173.230469 143.382812 173.230469 141.507812 C 173.230469 139.628906 174.761719 138.101562 176.636719 138.101562 C 178.511719 138.101562 180.042969 139.628906 180.042969 141.507812 C 180.042969 143.382812 178.511719 144.914062 176.636719 144.914062 Z M 176.636719 139.800781 C 175.691406 139.800781 174.921875 140.570312 174.921875 141.515625 C 174.921875 142.460938 175.691406 143.230469 176.636719 143.230469 C 177.582031 143.230469 178.351562 142.460938 178.351562 141.515625 C 178.351562 140.570312 177.582031 139.800781 176.636719 139.800781 Z M 176.636719 139.800781 " fill-opacity="1" fill-rule="nonzero"/><g clip-path="url(#69ed5f2c3b)"><path fill="#225aa5" d="M 167.625 122.605469 C 167.457031 122.605469 167.296875 122.554688 167.152344 122.460938 C 166.914062 122.300781 166.78125 122.039062 166.78125 121.761719 L 166.78125 115.429688 C 166.78125 114.339844 167.667969 113.449219 168.757812 113.449219 L 172.46875 113.449219 C 173.558594 113.449219 174.449219 114.339844 174.449219 115.429688 L 174.449219 119.351562 C 174.449219 119.699219 174.234375 120.003906 173.914062 120.136719 L 167.9375 122.546875 C 167.835938 122.589844 167.726562 122.605469 167.625 122.605469 Z M 168.757812 115.140625 C 168.597656 115.140625 168.472656 115.269531 168.472656 115.429688 L 168.472656 120.507812 L 172.757812 118.785156 L 172.757812 115.4375 C 172.757812 115.277344 172.628906 115.148438 172.46875 115.148438 L 168.757812 115.148438 Z M 173.601562 119.351562 Z M 173.601562 119.351562 " fill-opacity="1" fill-rule="nonzero"/></g></svg>